<svg width="86" height="79" viewBox="0 0 86 79" fill="none" xmlns="http://www.w3.org/2000/svg">
<g clip-path="url(#clip0)">
<path d="M52.717 58.1272L44.7456 75.1206C47.9338 77.3503 51.6765 78.6664 55.5653 78.9252C59.4541 79.1841 63.3396 78.3757 66.7981 76.5884C70.2567 74.8011 73.1553 72.1034 75.1778 68.7897C77.2004 65.476 78.2692 61.6734 78.2676 57.7968C78.2676 57.265 78.2676 56.7332 78.2028 56.1853C74.7359 59.2057 70.3771 61.0255 65.7814 61.3713C61.1858 61.7171 56.6013 60.5703 52.717 58.103V58.1272Z" fill="#DF1F3D"/>
<path d="M21.7632 61.455C16.457 61.471 11.3376 59.5073 7.41626 55.9517C7.35955 56.556 7.32715 57.1764 7.32715 57.7968C7.32575 61.7096 8.41474 65.5461 10.4732 68.8804C12.5316 72.2147 15.4789 74.9163 18.9878 76.6851C22.4967 78.4539 26.4299 79.2208 30.3505 78.9005C34.2712 78.5802 38.0258 77.1854 41.1975 74.8708L33.4205 57.9499C29.963 60.2271 25.91 61.4457 21.7632 61.455Z" fill="#FFE82D"/>
<path d="M35.2837 23.939C35.0694 23.2638 34.9601 22.5601 34.9597 21.8521C34.9597 17.5252 38.5646 14.3102 43.9842 14.3102C45.8684 14.3107 47.7464 14.5243 49.582 14.9468L49.1608 17.9925C47.4518 17.4414 45.6576 17.1985 43.8627 17.2754C40.0552 17.2754 38.6052 19.5396 38.6052 21.4331C38.6052 24.0276 40.2983 25.3088 44.1544 26.7914C45.0724 27.1325 45.9634 27.5419 46.8196 28.0161C48.7725 25.2776 51.3535 23.0415 54.3487 21.4932C57.3438 19.9448 60.6669 19.1287 64.0424 19.1125L64.1963 18.766C63.6215 13.6583 61.1978 8.93297 57.3776 5.47198C53.5574 2.01098 48.6016 0.0507187 43.435 -0.0430016C38.2685 -0.136722 33.2441 1.6425 29.2996 4.96265C25.355 8.28279 22.7597 12.917 21.998 18.0006L22.4841 19.1286C27.1691 19.2749 31.6721 20.9672 35.2837 23.939Z" fill="#004C9D"/>
<path d="M42.3477 29.7163C41.3286 29.3638 40.3397 28.93 39.3909 28.419C41.4384 31.4186 42.6719 34.8937 42.9715 38.507C43.19 35.8969 43.8961 33.3501 45.0535 30.9974C44.1946 30.4856 43.2886 30.0566 42.3477 29.7163Z" fill="#004C9D"/>
<path d="M85.4696 40.2878C85.4743 35.7839 84.0357 31.3957 81.3626 27.7603C78.6895 24.1249 74.9209 21.4316 70.6042 20.0714L62.5032 37.3387C66.7696 38.4736 70.5761 40.8992 73.396 44.2799C76.2158 47.6606 77.9098 51.8293 78.2435 56.2095C80.5205 54.2222 82.3435 51.7732 83.5899 49.0269C84.8363 46.2807 85.4772 43.3009 85.4696 40.2878Z" fill="#4DAF47"/>
<path d="M62.5032 37.3387L52.782 58.1272C56.6663 60.5944 61.2507 61.7413 65.8464 61.3955C70.4421 61.0497 74.8009 59.2299 78.2678 56.2095C77.9325 51.8262 76.235 47.6552 73.4105 44.2741C70.586 40.893 66.7742 38.4693 62.5032 37.3387Z" fill="#93524A"/>
<path d="M43.644 42.7856C46.3278 45.4319 48.2544 48.7416 49.2257 52.3741L56.233 36.6296C54.412 36.6892 52.6064 36.9844 50.8621 37.5079C49.9547 40.1588 47.573 42.2377 43.644 42.7856Z" fill="#93524A"/>
<path d="M23.8613 37.1695L15.9223 19.9183C12.2715 20.9501 8.96439 22.9339 6.34346 25.6641C3.72253 28.3944 1.88306 31.772 1.01553 35.447C0.148008 39.122 0.283974 42.9608 1.40935 46.566C2.53473 50.1712 4.6086 53.4116 7.4162 55.9517C7.80939 51.4939 9.61282 47.2748 12.5675 43.9003C15.5221 40.5257 19.476 38.1693 23.8613 37.1695Z" fill="#A4ACB1"/>
<path d="M40.0066 39.893C40.5818 39.9413 41.1651 39.9655 41.7645 39.9655C42.1438 39.9667 42.5227 39.9425 42.8987 39.893C42.8987 39.4256 42.8987 38.9663 42.9716 38.5071C42.6719 34.8937 41.4385 31.4186 39.3909 28.419C37.3171 27.2829 35.8751 25.8325 35.2837 23.939C31.6775 20.9601 27.1773 19.2593 22.4922 19.1045L30.1558 36.6538C33.6596 36.8997 37.0459 38.0132 40.0066 39.893Z" fill="#507A97"/>
<path d="M41.8373 42.9145H41.5214C39.1303 42.9827 36.7476 42.6027 34.4978 41.7945L35.1702 38.6763C36.6931 39.4047 38.344 39.8316 40.0308 39.9332C37.0685 38.0591 33.6823 36.9512 30.1799 36.7102L36.6608 51.5764C37.661 48.3171 39.4367 45.3458 41.8373 42.9145Z" fill="#D8C82A"/>
<path d="M33.4449 58.0144L23.8613 37.1695C19.4761 38.1693 15.5222 40.5257 12.5675 43.9003C9.61289 47.2748 7.80945 51.4939 7.41626 55.9517C10.9093 59.12 15.363 61.0423 20.0755 61.4158C24.788 61.7893 29.4914 60.5926 33.4449 58.0144Z" fill="#D8C82A"/>
<path d="M43.6438 42.7856C43.0446 42.8629 42.4414 42.906 41.8373 42.9145C39.4319 45.3418 37.6506 48.3104 36.6445 51.5684L43.0605 66.2331L49.2254 52.3741C48.2542 48.7416 46.3276 45.4319 43.6438 42.7856Z" fill="#EB9103"/>
<path d="M51.2913 34.9456C51.2893 35.8199 51.1443 36.688 50.8619 37.516C52.6063 36.9925 54.4118 36.6973 56.2329 36.6377L64.0423 19.1125C60.6695 19.1312 57.3497 19.9485 54.3576 21.4968C51.3655 23.0451 48.787 25.2799 46.8357 28.0161C49.7845 29.6437 51.2913 31.7226 51.2913 34.9456Z" fill="#008292"/>
<path d="M47.6054 35.2276C47.6054 33.3824 46.8439 32.1013 45.0535 30.9974C43.8961 33.3501 43.1901 35.8969 42.9716 38.507C42.9716 38.9663 42.9149 39.4256 42.8987 39.8929C45.888 39.5304 47.6054 37.7255 47.6054 35.2276Z" fill="#008292"/>
</g>
<defs>
<clipPath id="clip0">
<rect width="86" height="79" fill="white"/>
</clipPath>
</defs>
</svg>
