<svg width="170" height="19" viewBox="0 0 170 19" fill="none" xmlns="http://www.w3.org/2000/svg">
<g clip-path="url(#clip0)">
<path d="M93.0645 11.2809C91.5658 10.2092 89.8241 9.66934 88.2039 8.86358C87.2885 8.38013 86.6323 7.79193 86.6728 6.72833C86.6728 5.81783 87.5558 5.11682 88.7628 4.97178C90.0268 4.79037 91.3154 4.88664 92.5379 5.2538C93.1131 5.41495 93.5343 5.57611 93.6397 4.76229C93.7288 4.09352 93.9799 3.42474 92.9106 3.3361C90.9096 3.16689 88.9735 2.94128 87.0049 3.85984C86.4686 4.11168 85.9995 4.48568 85.6355 4.9515C85.2716 5.41733 85.0232 5.96189 84.9104 6.54104C84.7976 7.12019 84.8235 7.71763 84.9862 8.28493C85.1488 8.85224 85.4435 9.37345 85.8465 9.80632C86.9389 10.762 88.2071 11.498 89.5811 11.9738C90.5962 12.3244 91.5222 12.8909 92.2949 13.6337C93.1617 14.6086 92.9673 16.4538 91.5415 16.8567C89.9759 17.3108 88.3198 17.3607 86.7295 17.0017C84.9716 16.615 84.9635 16.6311 84.5908 18.436C86.9095 19.0788 89.3547 19.1232 91.6954 18.5649C92.4471 18.4138 93.1344 18.0382 93.6657 17.4881C94.197 16.9381 94.5468 16.2399 94.6685 15.4869C94.8412 14.7066 94.7814 13.8932 94.4965 13.1462C94.2116 12.3992 93.714 11.7509 93.0645 11.2809Z" fill="#054F9E"/>
<path d="M12.8238 3.38446C12.4881 3.2323 12.1058 3.2171 11.759 3.34214C11.4122 3.46717 11.1284 3.72247 10.9687 4.05323C10.2153 6.66388 9.10546 9.14561 8.14144 11.6757C7.52634 13.0943 7.02785 14.5602 6.65085 16.059C5.67062 12.9568 4.41497 10.0078 3.31323 7.0023C2.82679 5.98063 2.48858 4.89547 2.3087 3.77928C2.3087 3.38446 2.09807 3.32 1.76593 3.32806H0.494069C-0.0081943 3.32806 -0.0649015 3.4892 0.0485129 3.9646C0.385679 5.30922 0.846686 6.62009 1.42569 7.88057C2.84337 11.1036 4.18814 14.3266 5.41139 17.6302C5.62202 18.1781 5.79214 18.436 6.48073 18.4924C7.16931 18.5488 7.37184 18.0412 7.48525 17.5496C8.04063 15.6599 8.78986 13.832 9.72114 12.0947C10.8796 9.62906 11.8193 7.08288 13.0021 4.64144C13.1803 4.23856 13.4233 3.69065 12.8238 3.38446Z" fill="#054F9E"/>
<path d="M125.623 7.15539C124.714 6.96583 123.773 6.99645 122.879 7.24467C121.986 7.4929 121.165 7.95145 120.487 8.58158C120.414 8.52518 120.373 8.50906 120.373 8.48489C120.363 8.23477 120.282 7.99252 120.141 7.78535C120 7.57819 119.803 7.41433 119.573 7.3122C119.344 7.21006 119.09 7.1737 118.84 7.20721C118.591 7.24072 118.356 7.34276 118.162 7.50187C117.894 7.64691 117.959 7.84028 118.008 8.03366C118.818 11.16 118.55 14.3266 118.356 17.4852C118.356 18.2426 118.413 18.6052 119.28 18.5004C119.976 18.4199 120.738 18.7421 120.649 17.4529C120.503 15.2452 120.568 13.0213 120.543 10.8055C120.543 10.4106 120.446 9.91108 120.786 9.7177C121.977 9.01669 123.217 8.37208 124.667 8.91194C125.331 9.15367 126.092 9.44374 126.23 10.2898C126.354 11.0191 126.414 11.7578 126.408 12.4975C126.408 14.2863 126.327 16.0832 126.23 17.8719C126.23 18.6777 126.708 18.581 127.113 18.4763C127.518 18.3715 128.369 19.008 128.369 17.9283C128.369 15.4305 128.369 12.9246 128.369 10.4268C128.39 9.64244 128.123 8.87742 127.617 8.27517C127.111 7.67291 126.402 7.27477 125.623 7.15539Z" fill="#054F9E"/>
<path d="M33.9026 15.3177C33.7274 14.2392 33.6731 13.1448 33.7406 12.0544C33.7406 11.1922 33.368 10.0883 33.9269 9.51625C34.4859 8.94417 35.5472 9.34704 36.3573 9.42762C37.3294 9.51625 37.1106 8.91193 37.1674 8.39625C37.2808 7.59049 36.819 7.6469 36.2762 7.67913C35.7335 7.71136 35.0773 7.67913 34.4778 7.74359C33.8783 7.80805 33.7973 7.55021 33.8378 7.0587C33.8945 6.25294 33.9107 5.5197 33.9269 4.74618C33.9269 4.52863 34.0161 4.30301 33.5948 4.25467C32.3878 4.14186 32.0232 4.41582 32.0232 5.6164C31.9989 5.93287 31.9989 6.25072 32.0232 6.56719C32.1771 7.56632 31.7154 7.87251 30.7756 7.73553C30.3544 7.67107 29.9088 7.52604 29.8521 8.30762C29.7954 9.0892 29.9493 9.58877 30.8891 9.38733C31.6992 9.21812 31.845 9.53237 31.8126 10.2656C31.764 11.7079 31.7397 13.1583 31.8126 14.5925C31.8693 15.5916 31.8126 16.6633 32.3797 17.5496C33.1898 18.8147 34.5669 18.7583 35.855 18.718C37.3051 18.6777 37.4752 18.4843 37.4752 16.8486C37.0296 16.9373 36.6651 17.0339 36.2762 17.0742C36.0022 17.1352 35.7181 17.1367 35.4434 17.0785C35.1688 17.0203 34.9099 16.9039 34.6846 16.7372C34.4593 16.5704 34.2728 16.3573 34.1378 16.1123C34.0029 15.8674 33.9227 15.5963 33.9026 15.3177Z" fill="#054F9E"/>
<path d="M152.445 7.48575C150.825 7.48575 150.825 7.48575 150.468 9.04085C149.901 11.3453 148.848 13.4806 147.981 16.0106C146.969 13.4644 145.924 11.2567 145.243 8.93611C144.911 7.79194 144.579 7.3246 143.404 7.48575C143.048 7.51015 142.691 7.51015 142.335 7.48575C142.646 8.43766 143.011 9.37116 143.429 10.2817C144.611 12.699 145.6 15.2532 146.547 17.7833C146.627 17.9968 146.769 18.181 146.957 18.3111C147.145 18.4413 147.368 18.511 147.597 18.511C147.825 18.511 148.049 18.4413 148.236 18.3111C148.424 18.181 148.567 17.9968 148.646 17.7833C149.404 15.7761 150.303 13.8241 151.335 11.9416C152.072 10.5396 152.631 9.04891 153.312 7.49381C152.931 7.48575 152.688 7.4938 152.445 7.48575Z" fill="#054F9E"/>
<path d="M102.259 17.0904C100.914 17.179 99.9179 16.486 99.8936 15.4063C99.845 13.6175 99.8936 11.8207 99.8369 10.0319C99.8369 9.42762 100.08 9.32287 100.59 9.3551C101.295 9.3551 102 9.3551 102.713 9.40344C103.612 9.40344 103.183 8.73467 103.28 8.33985C103.377 7.94503 103.28 7.62273 102.688 7.66302C101.984 7.71136 101.279 7.66301 100.574 7.74359C99.9989 7.79193 99.8369 7.56632 99.8693 7.02647C99.926 6.28517 99.8693 5.55193 99.926 4.81064C99.926 4.56891 100.031 4.35136 99.6425 4.27078C98.6865 4.09352 98.1843 4.45611 98.1843 5.4069C98.1519 5.75801 98.1519 6.11133 98.1843 6.46244C98.3463 7.54215 97.9007 7.92891 96.8395 7.71942C96.3048 7.61467 96.0294 7.71941 96.0294 8.39625C95.9322 9.26647 96.1914 9.55654 97.0096 9.37927C97.8278 9.20201 98.0547 9.61295 98.0223 10.3945C97.9737 11.9416 97.9412 13.4886 98.0223 15.0357C97.9615 15.9439 98.1729 16.8496 98.6298 17.6383C99.4885 18.8308 100.736 18.7422 101.951 18.718C103.482 18.718 103.571 18.5568 103.466 16.897C103.067 16.9819 102.665 17.0464 102.259 17.0904Z" fill="#054F9E"/>
<path d="M27.4138 16.9614C25.1617 17.461 22.5531 16.8084 21.743 14.2702C21.4418 13.3523 21.4496 12.3616 21.7654 11.4485C22.0811 10.5353 22.6876 9.74949 23.4929 9.21007C24.0386 8.9133 24.6442 8.74189 25.2652 8.70843C25.8862 8.67497 26.5069 8.7803 27.0816 9.01669C27.6325 9.19395 27.7864 9.09726 27.8917 8.54935C28.1833 7.27625 28.078 7.09899 26.7171 7.06676H25.907C24.4994 7.00722 23.1137 7.4277 21.9792 8.25857C20.8448 9.08944 20.0298 10.2808 19.6692 11.6354C19.0292 13.6014 19.8798 16.4699 21.5405 17.5899C22.4476 18.1912 23.4737 18.5922 24.5497 18.7659C25.6256 18.9397 26.7266 18.8821 27.7783 18.5971C28.8638 18.3312 28.5236 17.606 28.4588 17.1065C28.3535 16.4699 27.7783 16.8809 27.4138 16.9614Z" fill="#054F9E"/>
<path d="M59.5506 7.26819C58.844 6.98822 58.0666 6.9372 57.3291 7.12238C56.5916 7.30757 55.9317 7.71953 55.4434 8.29956C55.2976 8.47683 55.1923 8.74272 54.7791 8.71855C54.7224 8.37208 54.6576 8.00143 54.6009 7.63884C54.6009 7.46963 54.6009 7.2279 54.366 7.25208C53.8135 7.26587 53.2666 7.36649 52.7458 7.55021C52.3164 7.75165 52.7458 8.25121 52.7458 8.57351C52.8491 9.0882 52.9007 9.61184 52.8997 10.1367V17.8397C52.8997 19.0403 53.807 18.3312 54.285 18.4682C54.7629 18.6052 55.014 18.3554 54.9897 17.7833C54.9087 15.9945 54.9897 14.1896 54.8196 12.417C54.7557 11.8892 54.8307 11.3541 55.0372 10.8638C55.2437 10.3736 55.5746 9.94502 55.9976 9.62015C56.4205 9.29528 56.9211 9.08522 57.4502 9.01051C57.9792 8.9358 58.5188 8.99901 59.0159 9.19395C60.0853 9.621 59.6802 8.54129 59.9476 8.16258C60.2149 7.78388 60.1258 7.4374 59.5506 7.26819Z" fill="#054F9E"/>
<path d="M63.7387 12.7715C63.7387 11.5468 63.7387 10.314 63.7387 9.08115C63.7387 7.06676 63.7873 7.06676 61.8025 7.46964H61.6972C61.3245 7.46964 61.2678 7.66302 61.3326 8.03366C61.7824 11.1831 61.8612 14.374 61.5676 17.5416C61.5676 18.2668 61.6486 18.581 62.4425 18.5004C63.0987 18.4279 63.8521 18.7341 63.7549 17.5255C63.6495 15.9462 63.7387 14.3588 63.7387 12.7715Z" fill="#054F9E"/>
<path d="M17.0121 11.7482C17.0121 11.1197 17.0121 10.4912 17.0121 9.85467C17.0121 9.21812 17.1012 8.52518 17.1255 7.86446C17.1255 7.65496 17.2956 7.2682 16.923 7.29237C16.2571 7.28792 15.5958 7.40255 14.9706 7.63079C14.6223 7.79194 14.7924 8.43654 14.841 8.82331C15.1458 11.7685 15.1811 14.7351 14.9463 17.6866C14.8977 18.4359 15.1246 18.6696 15.7564 18.4923C16.3883 18.3151 17.2794 19 17.1174 17.6383C16.9445 15.6797 16.9093 13.7116 17.0121 11.7482Z" fill="#054F9E"/>
<path d="M16.3964 2.80431C15.4323 2.80431 14.8734 3.23136 14.841 4.10158C14.8264 4.29084 14.8513 4.48105 14.9141 4.66029C14.9769 4.83953 15.0762 5.00393 15.2059 5.14318C15.3356 5.28243 15.4928 5.39353 15.6677 5.46951C15.8426 5.54549 16.0314 5.58471 16.2222 5.58471C16.413 5.58471 16.6018 5.54549 16.7767 5.46951C16.9516 5.39353 17.1088 5.28243 17.2385 5.14318C17.3681 5.00393 17.4675 4.83953 17.5303 4.66029C17.5931 4.48105 17.618 4.29084 17.6034 4.10158C17.6196 3.11855 17.3523 2.83654 16.3964 2.80431Z" fill="#054F9E"/>
<path d="M62.8396 2.80431C62.6449 2.78703 62.4486 2.81248 62.2648 2.87886C62.081 2.94523 61.9141 3.05091 61.7758 3.18845C61.6375 3.32599 61.5312 3.49203 61.4645 3.67487C61.3978 3.8577 61.3722 4.05287 61.3896 4.24661C61.4787 4.96373 61.7703 5.60833 62.6938 5.59222C62.8959 5.59232 63.0958 5.55202 63.2819 5.4737C63.468 5.39537 63.6363 5.28064 63.7768 5.13631C63.9174 4.99198 64.0274 4.82101 64.1002 4.63356C64.173 4.44611 64.2071 4.24601 64.2006 4.04517C64.2156 3.86847 64.1897 3.69071 64.1248 3.52553C64.0599 3.36036 63.9579 3.21217 63.8265 3.09235C63.695 2.97253 63.5378 2.88426 63.3667 2.83433C63.1956 2.7844 63.0153 2.77412 62.8396 2.80431Z" fill="#054F9E"/>
<path d="M110.838 7.09899C110.143 6.98762 109.431 7.06086 108.774 7.31131C108.117 7.56176 107.538 7.98052 107.095 8.52518C106.434 9.25256 105.94 10.1144 105.648 11.0509C105.356 11.9874 105.272 12.976 105.402 13.9479C105.45 14.6902 105.669 15.4116 106.043 16.0558C106.417 16.7001 106.935 17.2499 107.557 17.6624C109.826 19.2739 112.345 19.0322 114.848 18.4682C115.529 18.3151 115.31 17.5255 115.334 17.042C115.359 16.5586 114.824 16.8083 114.565 16.8325C113.761 16.9785 112.949 17.0807 112.134 17.1387C109.769 17.0662 108.408 16.5424 107.476 14.2863C107.087 13.3597 107.185 13.2227 108.222 13.2066C110.312 13.2066 112.394 13.1502 114.484 13.0938C114.816 13.0938 115.367 13.2711 115.399 12.6748C115.472 11.3211 115.618 9.98359 114.678 8.7669C114.272 8.14583 113.692 7.65679 113.009 7.36033C112.327 7.06387 111.572 6.97301 110.838 7.09899ZM113.503 11.1278C113.503 11.5468 113.43 11.7724 112.928 11.7643C111.097 11.7643 109.275 11.7643 107.363 11.7643C107.671 10.7571 107.897 9.69352 108.886 9.04892C109.386 8.72443 109.963 8.53713 110.559 8.506C111.155 8.47487 111.749 8.60101 112.28 8.87165C112.683 9.08824 113.013 9.41716 113.231 9.81798C113.448 10.2188 113.543 10.674 113.503 11.1278Z" fill="#054F9E"/>
<path d="M45.2523 7.06676C44.4717 7.02652 43.6912 7.14723 42.9597 7.4213C42.2283 7.69537 41.5617 8.11689 41.0018 8.65939C40.4419 9.20189 40.0008 9.85367 39.7062 10.5738C39.4116 11.2939 39.2699 12.0668 39.2899 12.844C39.2899 16.7439 41.1532 18.8227 44.507 18.9355C48.0067 19.0483 50.5342 16.5183 50.5828 12.7554C50.6233 9.39539 48.1687 6.7364 45.2523 7.06676ZM46.4918 17.1145C44.9931 18.1137 42.7815 17.2676 42.02 15.6078C41.5789 14.7887 41.3481 13.8739 41.3481 12.9447C41.3481 12.0156 41.5789 11.1008 42.02 10.2817C42.2197 9.80533 42.5478 9.39302 42.968 9.0902C43.3882 8.78737 43.8844 8.6058 44.4017 8.56546C44.9367 8.45369 45.4926 8.49418 46.0056 8.6823C46.5186 8.87043 46.9678 9.19856 47.3019 9.62906C48.0067 10.6363 48.7276 11.6676 48.3955 12.8521C48.5397 13.6703 48.4356 14.5127 48.0966 15.2718C47.7575 16.0309 47.1988 16.6724 46.4918 17.1145Z" fill="#054F9E"/>
<path d="M163.033 15.6078C163.033 13.8109 163.114 12.0222 163.033 10.2334C163.032 9.71321 162.89 9.20299 162.62 8.75732C162.35 8.31166 161.964 7.94732 161.502 7.70331C160.51 7.17446 159.38 6.95808 158.262 7.08288C157.152 7.02518 156.04 7.15319 154.973 7.46158C154.033 7.70331 154.211 8.49295 154.284 8.98446C154.357 9.47597 154.916 9.04086 155.256 8.98446C155.596 8.92806 155.807 8.84748 156.066 8.83942C157.395 8.7669 158.748 8.47684 160.019 9.13755C160.414 9.37016 160.725 9.71984 160.91 10.1375C161.094 10.5551 161.143 11.0198 161.048 11.4662C160.781 12.1672 160.068 11.7321 159.582 11.8852C159.373 11.9218 159.159 11.9218 158.95 11.8852C158.131 11.844 157.313 11.9716 156.546 12.26C155.779 12.5484 155.081 12.9914 154.495 13.5611C153.684 14.2863 153.474 16.7116 154.43 17.7672C155.791 19.2659 159.169 18.8388 160.425 17.9767C160.676 17.8075 161.081 17.2757 161.235 17.8397C161.526 19.0644 162.417 18.4682 162.92 18.3796C163.584 18.2667 163.106 17.5738 163.114 17.1387C163.122 16.7036 163.033 16.1315 163.033 15.6078ZM160.74 16.5102C159.7 17.1089 158.483 17.3283 157.298 17.1306C156.487 16.9775 155.766 16.6714 155.791 15.6319C155.797 15.1639 155.96 14.7112 156.253 14.3451C156.546 13.979 156.954 13.7202 157.411 13.6095C158.293 13.3906 159.189 13.2317 160.092 13.1341C161.008 13.0293 161.227 13.3597 161.121 14.1574C161.121 14.3991 161.121 14.6489 161.121 14.9632C160.951 15.4224 161.47 16.1315 160.74 16.5102Z" fill="#054F9E"/>
<path d="M136.462 7.06676C135.693 7.03062 134.924 7.13438 134.193 7.37295C131.569 8.60575 130.54 10.6846 130.605 13.4483C130.605 14.9954 130.888 16.4457 132.136 17.5416C132.976 18.3039 134.026 18.7975 135.152 18.9584C136.277 19.1194 137.425 18.9401 138.446 18.444C139.289 18.1254 140.031 17.587 140.592 16.8852C141.154 16.1834 141.515 15.3441 141.638 14.4555C141.898 12.844 142.019 11.2325 141.274 9.82244C140.31 8.02561 138.746 6.80892 136.462 7.06676ZM137.896 17.0259C137.529 17.262 137.116 17.4183 136.684 17.4848C136.252 17.5512 135.811 17.5261 135.39 17.4113C134.969 17.2964 134.576 17.0943 134.239 16.8182C133.901 16.5422 133.627 16.1983 133.432 15.8092C132.886 14.9466 132.596 13.948 132.596 12.9286C132.596 11.9093 132.886 10.9107 133.432 10.0481C133.709 9.59966 134.094 9.2267 134.552 8.96258C135.01 8.69847 135.526 8.55144 136.055 8.53467C136.584 8.5179 137.109 8.63192 137.583 8.86651C138.057 9.1011 138.465 9.44893 138.771 9.87884C139.107 10.3177 139.351 10.8188 139.49 11.3528C139.63 11.8868 139.66 12.4431 139.581 12.9891C139.72 13.7518 139.635 14.5385 139.336 15.2545C139.037 15.9706 138.537 16.5856 137.896 17.0259Z" fill="#054F9E"/>
<path d="M75.5178 11.2164C75.5826 9.60489 75.3638 8.23511 73.6626 7.50187C72.091 6.80892 70.4708 7.06676 68.8587 7.17151C68.3667 7.20859 67.8832 7.31999 67.4248 7.50187C66.72 7.76777 66.8335 8.49295 66.8902 8.96029C66.9469 9.42762 67.4653 9.05698 67.7489 8.96029C68.9294 8.72465 70.1366 8.64876 71.3376 8.73468C71.6497 8.72059 71.9613 8.76918 72.2541 8.87755C72.5468 8.98593 72.8146 9.15186 73.0414 9.36544C73.2683 9.57903 73.4495 9.83588 73.5743 10.1207C73.6991 10.4055 73.765 10.7124 73.7679 11.023C73.7679 11.5226 73.7193 11.8288 73.1036 11.8288C72.3271 11.799 71.5493 11.834 70.7787 11.9335C68 12.3364 65.918 13.545 66.5094 16.7681C66.5823 17.1664 66.7647 17.5369 67.0364 17.8384C67.3081 18.14 67.6584 18.3607 68.0486 18.4763C70.0091 19.2256 71.8318 18.7905 73.6707 17.6141C73.6707 19.0081 74.6509 18.4843 75.2909 18.4602C76.101 18.4602 75.6393 17.7833 75.5988 17.4368C75.4057 15.3688 75.3786 13.2887 75.5178 11.2164ZM72.0991 16.9695C71.1669 17.3112 70.139 17.2881 69.2233 16.905C68.9777 16.8215 68.7587 16.675 68.5883 16.4803C68.4179 16.2856 68.3022 16.0496 68.2529 15.7961C68.2036 15.5427 68.2224 15.2808 68.3074 15.0369C68.3925 14.7931 68.5407 14.5758 68.7372 14.4072C69.5473 13.5128 70.5437 13.4564 71.5483 13.2389C71.8885 13.1583 72.253 13.2389 72.5933 13.1583C73.5573 12.9568 73.8732 13.3517 73.7274 14.2622C73.7112 14.3933 73.7112 14.5259 73.7274 14.657C73.776 16.486 73.776 16.486 72.0991 16.9695Z" fill="#054F9E"/>
<path d="M166.881 0.661001C166.054 0.659519 165.258 0.972418 164.656 1.53564C164.053 2.09886 163.69 2.8698 163.641 3.69064C163.639 4.11159 163.723 4.52852 163.886 4.91693C164.049 5.30535 164.289 5.65741 164.591 5.95243C164.893 6.24744 165.251 6.47946 165.644 6.63484C166.037 6.79023 166.458 6.86585 166.881 6.85726C167.293 6.86598 167.702 6.79203 168.084 6.63983C168.467 6.48763 168.814 6.26031 169.106 5.97146C169.398 5.68261 169.628 5.33816 169.783 4.95873C169.938 4.5793 170.015 4.17266 170.008 3.76316C169.978 2.94863 169.638 2.17575 169.058 1.60015C168.478 1.02455 167.7 0.688973 166.881 0.661001ZM166.881 6.39798C166.178 6.33092 165.521 6.02096 165.023 5.52195C164.526 5.02294 164.22 4.36642 164.159 3.66647C164.219 3.00948 164.523 2.39825 165.011 1.95152C165.499 1.50479 166.137 1.25447 166.8 1.2492C167.487 1.25325 168.147 1.51396 168.65 1.97964C169.153 2.44531 169.461 3.08191 169.514 3.76316C169.457 4.44046 169.162 5.07618 168.681 5.55822C168.199 6.04025 167.562 6.33766 166.881 6.39798Z" fill="#054F9E"/>
<path d="M167.505 3.6423C167.598 3.50438 167.646 3.34114 167.642 3.17496C167.646 3.02837 167.61 2.88349 167.537 2.75596C167.475 2.63877 167.375 2.54533 167.254 2.49007C167.133 2.42875 167 2.39828 166.865 2.40144H165.974V4.89121H166.371V3.94848H166.743L167.27 4.89121H167.691L167.124 3.90014C167.277 3.86021 167.411 3.76917 167.505 3.6423ZM166.8 3.5859H166.371V2.78014H166.808C166.926 2.7727 167.041 2.81016 167.132 2.88489C167.171 2.92578 167.201 2.97396 167.22 3.02655C167.239 3.07914 167.248 3.13509 167.245 3.19107C167.25 3.24797 167.242 3.30521 167.221 3.35832C167.2 3.41143 167.167 3.45898 167.124 3.49726C167.032 3.56774 166.915 3.59955 166.8 3.5859Z" fill="#054F9E"/>
</g>
<defs>
<clipPath id="clip0">
<rect width="170" height="19" fill="white"/>
</clipPath>
</defs>
</svg>
