<svg width="28" height="28" viewBox="0 0 28 28" fill="none" xmlns="http://www.w3.org/2000/svg">
<path d="M9.17756 11.7396C9.82156 11.7396 10.3442 11.2169 10.3442 10.5729V6.02292C10.3442 3.98883 11.9991 2.33333 14.0338 2.33333C16.0679 2.33333 17.7234 3.98883 17.7234 6.02292V10.5729C17.7234 11.2169 18.2461 11.7396 18.8901 11.7396C19.5341 11.7396 20.0567 11.2169 20.0567 10.5729V6.02292C20.0567 2.702 17.3547 0 14.0338 0C10.7135 0 8.01148 2.702 8.01148 6.02292V10.5729C8.01089 11.2169 8.53356 11.7396 9.17756 11.7396Z" fill="#383733"/>
<path d="M27.4167 9.11809H21.2235V10.5729C21.2235 11.8598 20.177 12.9063 18.8901 12.9063C17.6039 12.9063 16.5568 11.8598 16.5568 10.5729V9.11809H11.5116V10.5729C11.5116 11.8598 10.4651 12.9063 9.17823 12.9063C7.8914 12.9063 6.8449 11.8598 6.8449 10.5729V9.11809H0.583398C0.261398 9.11809 0.0624808 9.37184 0.138898 9.6845L4.22048 26.3083C4.46723 27.2428 5.45015 28 6.41673 28H21.5834C22.5506 28 23.5329 27.2423 23.7808 26.3083L27.8618 9.6845C27.9376 9.37125 27.7393 9.11809 27.4167 9.11809Z" fill="#383733"/>
</svg>
