<svg width="170" height="112" viewBox="0 0 170 112" fill="none" xmlns="http://www.w3.org/2000/svg">
<g clip-path="url(#clip0)">
<path d="M93.0645 104.281C91.5658 103.209 89.8241 102.669 88.2039 101.864C87.2885 101.38 86.6323 100.792 86.6728 99.7283C86.6728 98.8178 87.5558 98.1168 88.7628 97.9718C90.0268 97.7904 91.3154 97.8866 92.5379 98.2538C93.1131 98.415 93.5343 98.5761 93.6397 97.7623C93.7288 97.0935 93.9799 96.4247 92.9106 96.3361C90.9096 96.1669 88.9735 95.9413 87.0049 96.8598C86.4686 97.1117 85.9995 97.4857 85.6355 97.9515C85.2716 98.4173 85.0232 98.9619 84.9104 99.541C84.7976 100.12 84.8235 100.718 84.9862 101.285C85.1488 101.852 85.4435 102.373 85.8465 102.806C86.9389 103.762 88.2071 104.498 89.5811 104.974C90.5962 105.324 91.5222 105.891 92.2949 106.634C93.1617 107.609 92.9673 109.454 91.5415 109.857C89.9759 110.311 88.3198 110.361 86.7295 110.002C84.9716 109.615 84.9635 109.631 84.5908 111.436C86.9095 112.079 89.3547 112.123 91.6954 111.565C92.4471 111.414 93.1344 111.038 93.6657 110.488C94.197 109.938 94.5468 109.24 94.6685 108.487C94.8412 107.707 94.7814 106.893 94.4965 106.146C94.2116 105.399 93.714 104.751 93.0645 104.281V104.281Z" fill="#054F9E"/>
<path d="M12.8238 96.3845C12.4881 96.2323 12.1058 96.2171 11.759 96.3421C11.4122 96.4672 11.1284 96.7225 10.9687 97.0532C10.2153 99.6639 9.10546 102.146 8.14144 104.676C7.52634 106.094 7.02785 107.56 6.65085 109.059C5.67062 105.957 4.41497 103.008 3.31323 100.002C2.82679 98.9806 2.48858 97.8955 2.3087 96.7793C2.3087 96.3845 2.09807 96.32 1.76593 96.3281H0.494069C-0.00819433 96.3281 -0.0649015 96.4892 0.0485129 96.9646C0.385679 98.3092 0.846686 99.6201 1.42569 100.881C2.84337 104.104 4.18814 107.327 5.41139 110.63C5.62202 111.178 5.79214 111.436 6.48073 111.492C7.16931 111.549 7.37184 111.041 7.48525 110.55C8.04063 108.66 8.78986 106.832 9.72114 105.095C10.8796 102.629 11.8193 100.083 13.0021 97.6414C13.1803 97.2386 13.4233 96.6906 12.8238 96.3845Z" fill="#054F9E"/>
<path d="M125.623 100.155C124.714 99.9658 123.773 99.9964 122.879 100.245C121.986 100.493 121.165 100.951 120.487 101.582C120.414 101.525 120.373 101.509 120.373 101.485C120.363 101.235 120.282 100.993 120.141 100.785C120 100.578 119.803 100.414 119.573 100.312C119.344 100.21 119.09 100.174 118.84 100.207C118.591 100.241 118.356 100.343 118.162 100.502C117.894 100.647 117.959 100.84 118.008 101.034C118.818 104.16 118.55 107.327 118.356 110.485C118.356 111.243 118.413 111.605 119.28 111.5C119.976 111.42 120.738 111.742 120.649 110.453C120.503 108.245 120.568 106.021 120.543 103.805C120.543 103.411 120.446 102.911 120.786 102.718C121.977 102.017 123.217 101.372 124.667 101.912C125.331 102.154 126.092 102.444 126.23 103.29C126.354 104.019 126.414 104.758 126.408 105.498C126.408 107.286 126.327 109.083 126.23 110.872C126.23 111.678 126.708 111.581 127.113 111.476C127.518 111.372 128.369 112.008 128.369 110.928C128.369 108.43 128.369 105.925 128.369 103.427C128.39 102.642 128.123 101.877 127.617 101.275C127.111 100.673 126.402 100.275 125.623 100.155V100.155Z" fill="#054F9E"/>
<path d="M33.9026 108.318C33.7274 107.239 33.6731 106.145 33.7406 105.054C33.7406 104.192 33.368 103.088 33.9269 102.516C34.4859 101.944 35.5472 102.347 36.3573 102.428C37.3294 102.516 37.1106 101.912 37.1674 101.396C37.2808 100.59 36.819 100.647 36.2762 100.679C35.7335 100.711 35.0773 100.679 34.4778 100.744C33.8783 100.808 33.7973 100.55 33.8378 100.059C33.8945 99.2529 33.9107 98.5197 33.9269 97.7462C33.9269 97.5286 34.0161 97.303 33.5948 97.2547C32.3878 97.1419 32.0232 97.4158 32.0232 98.6164C31.9989 98.9329 31.9989 99.2507 32.0232 99.5672C32.1771 100.566 31.7154 100.873 30.7756 100.736C30.3544 100.671 29.9088 100.526 29.8521 101.308C29.7954 102.089 29.9493 102.589 30.8891 102.387C31.6992 102.218 31.845 102.532 31.8126 103.266C31.764 104.708 31.7397 106.158 31.8126 107.593C31.8693 108.592 31.8126 109.663 32.3797 110.55C33.1898 111.815 34.5669 111.758 35.855 111.718C37.3051 111.678 37.4752 111.484 37.4752 109.849C37.0296 109.937 36.6651 110.034 36.2762 110.074C36.0022 110.135 35.7181 110.137 35.4434 110.078C35.1688 110.02 34.9099 109.904 34.6846 109.737C34.4593 109.57 34.2728 109.357 34.1378 109.112C34.0029 108.867 33.9227 108.596 33.9026 108.318V108.318Z" fill="#054F9E"/>
<path d="M152.445 100.486C150.825 100.486 150.825 100.486 150.468 102.041C149.901 104.345 148.848 106.481 147.981 109.011C146.969 106.464 145.924 104.257 145.243 101.936C144.911 100.792 144.579 100.325 143.404 100.486C143.048 100.51 142.691 100.51 142.335 100.486C142.646 101.438 143.011 102.371 143.429 103.282C144.611 105.699 145.6 108.253 146.547 110.783C146.627 110.997 146.769 111.181 146.957 111.311C147.145 111.441 147.368 111.511 147.597 111.511C147.825 111.511 148.049 111.441 148.236 111.311C148.424 111.181 148.567 110.997 148.646 110.783C149.404 108.776 150.303 106.824 151.335 104.942C152.072 103.54 152.631 102.049 153.312 100.494C152.931 100.486 152.688 100.494 152.445 100.486Z" fill="#054F9E"/>
<path d="M102.259 110.09C100.914 110.179 99.9179 109.486 99.8936 108.406C99.845 106.618 99.8936 104.821 99.8369 103.032C99.8369 102.428 100.08 102.323 100.59 102.355C101.295 102.355 102 102.355 102.713 102.403C103.612 102.403 103.183 101.735 103.28 101.34C103.377 100.945 103.28 100.623 102.688 100.663C101.984 100.711 101.279 100.663 100.574 100.744C99.9989 100.792 99.8369 100.566 99.8693 100.026C99.926 99.2852 99.8693 98.5519 99.926 97.8106C99.926 97.5689 100.031 97.3514 99.6425 97.2708C98.6865 97.0935 98.1843 97.4561 98.1843 98.4069C98.1519 98.758 98.1519 99.1113 98.1843 99.4624C98.3463 100.542 97.9007 100.929 96.8395 100.719C96.3048 100.615 96.0294 100.719 96.0294 101.396C95.9322 102.266 96.1914 102.557 97.0096 102.379C97.8278 102.202 98.0547 102.613 98.0223 103.395C97.9737 104.942 97.9412 106.489 98.0223 108.036C97.9615 108.944 98.1729 109.85 98.6298 110.638C99.4885 111.831 100.736 111.742 101.951 111.718C103.482 111.718 103.571 111.557 103.466 109.897C103.067 109.982 102.665 110.046 102.259 110.09V110.09Z" fill="#054F9E"/>
<path d="M27.4138 109.961C25.1617 110.461 22.5531 109.808 21.743 107.27C21.4418 106.352 21.4496 105.362 21.7654 104.448C22.0811 103.535 22.6876 102.749 23.4929 102.21C24.0386 101.913 24.6442 101.742 25.2652 101.708C25.8862 101.675 26.5069 101.78 27.0816 102.017C27.6325 102.194 27.7864 102.097 27.8917 101.549C28.1833 100.276 28.078 100.099 26.7171 100.067H25.907C24.4994 100.007 23.1137 100.428 21.9792 101.259C20.8448 102.089 20.0298 103.281 19.6692 104.635C19.0292 106.601 19.8798 109.47 21.5405 110.59C22.4476 111.191 23.4737 111.592 24.5497 111.766C25.6256 111.94 26.7266 111.882 27.7783 111.597C28.8638 111.331 28.5236 110.606 28.4588 110.106C28.3535 109.47 27.7783 109.881 27.4138 109.961Z" fill="#054F9E"/>
<path d="M59.5506 100.268C58.844 99.9882 58.0666 99.9372 57.3291 100.122C56.5916 100.308 55.9317 100.72 55.4434 101.3C55.2976 101.477 55.1923 101.743 54.7791 101.719C54.7224 101.372 54.6576 101.001 54.6009 100.639C54.6009 100.47 54.6009 100.228 54.366 100.252C53.8135 100.266 53.2666 100.366 52.7458 100.55C52.3164 100.752 52.7458 101.251 52.7458 101.574C52.8491 102.088 52.9007 102.612 52.8997 103.137V110.84C52.8997 112.04 53.807 111.331 54.285 111.468C54.7629 111.605 55.014 111.355 54.9897 110.783C54.9087 108.995 54.9897 107.19 54.8196 105.417C54.7557 104.889 54.8307 104.354 55.0372 103.864C55.2437 103.374 55.5746 102.945 55.9976 102.62C56.4205 102.295 56.9211 102.085 57.4502 102.011C57.9792 101.936 58.5188 101.999 59.0159 102.194C60.0853 102.621 59.6802 101.541 59.9476 101.163C60.2149 100.784 60.1258 100.437 59.5506 100.268Z" fill="#054F9E"/>
<path d="M63.7387 105.772C63.7387 104.547 63.7387 103.314 63.7387 102.081C63.7387 100.067 63.7873 100.067 61.8025 100.47H61.6972C61.3245 100.47 61.2678 100.663 61.3326 101.034C61.7824 104.183 61.8612 107.374 61.5676 110.542C61.5676 111.267 61.6486 111.581 62.4425 111.5C63.0987 111.428 63.8521 111.734 63.7549 110.525C63.6495 108.946 63.7387 107.359 63.7387 105.772Z" fill="#054F9E"/>
<path d="M17.0121 104.748C17.0121 104.12 17.0121 103.491 17.0121 102.855C17.0121 102.218 17.1012 101.525 17.1255 100.864C17.1255 100.655 17.2956 100.268 16.923 100.292C16.2571 100.288 15.5958 100.403 14.9706 100.631C14.6223 100.792 14.7924 101.437 14.841 101.823C15.1458 104.768 15.1811 107.735 14.9463 110.687C14.8977 111.436 15.1246 111.67 15.7564 111.492C16.3883 111.315 17.2794 112 17.1174 110.638C16.9445 108.68 16.9093 106.712 17.0121 104.748V104.748Z" fill="#054F9E"/>
<path d="M16.3964 95.8043C15.4323 95.8043 14.8734 96.2314 14.841 97.1016C14.8264 97.2908 14.8513 97.481 14.9141 97.6603C14.9769 97.8395 15.0762 98.0039 15.2059 98.1432C15.3356 98.2824 15.4928 98.3935 15.6677 98.4695C15.8426 98.5455 16.0314 98.5847 16.2222 98.5847C16.413 98.5847 16.6018 98.5455 16.7767 98.4695C16.9516 98.3935 17.1088 98.2824 17.2385 98.1432C17.3681 98.0039 17.4675 97.8395 17.5303 97.6603C17.5931 97.481 17.618 97.2908 17.6034 97.1016C17.6196 96.1186 17.3523 95.8365 16.3964 95.8043Z" fill="#054F9E"/>
<path d="M62.8396 95.8043C62.6449 95.787 62.4486 95.8125 62.2648 95.8789C62.081 95.9452 61.9141 96.0509 61.7758 96.1885C61.6375 96.326 61.5312 96.492 61.4645 96.6749C61.3978 96.8577 61.3722 97.0529 61.3896 97.2466C61.4787 97.9637 61.7703 98.6083 62.6938 98.5922C62.8959 98.5923 63.0958 98.552 63.2819 98.4737C63.468 98.3954 63.6363 98.2806 63.7768 98.1363C63.9174 97.992 64.0274 97.821 64.1002 97.6336C64.173 97.4461 64.2071 97.246 64.2006 97.0452C64.2156 96.8685 64.1897 96.6907 64.1248 96.5255C64.0599 96.3604 63.9579 96.2122 63.8265 96.0923C63.695 95.9725 63.5378 95.8843 63.3667 95.8343C63.1956 95.7844 63.0153 95.7741 62.8396 95.8043Z" fill="#054F9E"/>
<path d="M110.838 100.099C110.143 99.9876 109.431 100.061 108.774 100.311C108.117 100.562 107.538 100.981 107.095 101.525C106.434 102.253 105.94 103.114 105.648 104.051C105.356 104.987 105.272 105.976 105.402 106.948C105.45 107.69 105.669 108.412 106.043 109.056C106.417 109.7 106.935 110.25 107.557 110.662C109.826 112.274 112.345 112.032 114.848 111.468C115.529 111.315 115.31 110.525 115.334 110.042C115.359 109.559 114.824 109.808 114.565 109.832C113.761 109.978 112.949 110.081 112.134 110.139C109.769 110.066 108.408 109.542 107.476 107.286C107.087 106.36 107.185 106.223 108.222 106.207C110.312 106.207 112.394 106.15 114.484 106.094C114.816 106.094 115.367 106.271 115.399 105.675C115.472 104.321 115.618 102.984 114.678 101.767C114.272 101.146 113.692 100.657 113.009 100.36C112.327 100.064 111.572 99.973 110.838 100.099V100.099ZM113.503 104.128C113.503 104.547 113.43 104.772 112.928 104.764C111.097 104.764 109.275 104.764 107.363 104.764C107.671 103.757 107.897 102.694 108.886 102.049C109.386 101.724 109.963 101.537 110.559 101.506C111.155 101.475 111.749 101.601 112.28 101.872C112.683 102.088 113.013 102.417 113.231 102.818C113.448 103.219 113.543 103.674 113.503 104.128V104.128Z" fill="#054F9E"/>
<path d="M45.2523 100.067C44.4717 100.027 43.6912 100.147 42.9597 100.421C42.2283 100.695 41.5617 101.117 41.0018 101.659C40.4419 102.202 40.0008 102.854 39.7062 103.574C39.4116 104.294 39.2699 105.067 39.2899 105.844C39.2899 109.744 41.1532 111.823 44.507 111.936C48.0067 112.048 50.5342 109.518 50.5828 105.755C50.6233 102.395 48.1687 99.7364 45.2523 100.067ZM46.4918 110.115C44.9931 111.114 42.7815 110.268 42.02 108.608C41.5789 107.789 41.3481 106.874 41.3481 105.945C41.3481 105.016 41.5789 104.101 42.02 103.282C42.2197 102.805 42.5478 102.393 42.968 102.09C43.3882 101.787 43.8844 101.606 44.4017 101.565C44.9367 101.454 45.4926 101.494 46.0056 101.682C46.5186 101.87 46.9678 102.199 47.3019 102.629C48.0067 103.636 48.7276 104.668 48.3955 105.852C48.5397 106.67 48.4356 107.513 48.0966 108.272C47.7575 109.031 47.1988 109.672 46.4918 110.115V110.115Z" fill="#054F9E"/>
<path d="M163.033 108.608C163.033 106.811 163.114 105.022 163.033 103.233C163.032 102.713 162.89 102.203 162.62 101.757C162.35 101.312 161.964 100.947 161.502 100.703C160.51 100.174 159.38 99.9581 158.262 100.083C157.152 100.025 156.04 100.153 154.973 100.462C154.033 100.703 154.211 101.493 154.284 101.984C154.357 102.476 154.916 102.041 155.256 101.984C155.596 101.928 155.807 101.847 156.066 101.839C157.395 101.767 158.748 101.477 160.019 102.138C160.414 102.37 160.725 102.72 160.91 103.137C161.094 103.555 161.143 104.02 161.048 104.466C160.781 105.167 160.068 104.732 159.582 104.885C159.373 104.922 159.159 104.922 158.95 104.885C158.131 104.844 157.313 104.972 156.546 105.26C155.779 105.548 155.081 105.991 154.495 106.561C153.684 107.286 153.474 109.712 154.43 110.767C155.791 112.266 159.169 111.839 160.425 110.977C160.676 110.807 161.081 110.276 161.235 110.84C161.526 112.064 162.417 111.468 162.92 111.38C163.584 111.267 163.106 110.574 163.114 110.139C163.122 109.704 163.033 109.131 163.033 108.608ZM160.74 109.51C159.7 110.109 158.483 110.328 157.298 110.131C156.487 109.978 155.766 109.671 155.791 108.632C155.797 108.164 155.96 107.711 156.253 107.345C156.546 106.979 156.954 106.72 157.411 106.609C158.293 106.391 159.189 106.232 160.092 106.134C161.008 106.029 161.227 106.36 161.121 107.157C161.121 107.399 161.121 107.649 161.121 107.963C160.951 108.422 161.47 109.132 160.74 109.51Z" fill="#054F9E"/>
<path d="M136.462 100.067C135.693 100.031 134.924 100.134 134.193 100.373C131.569 101.606 130.54 103.685 130.605 106.448C130.605 107.995 130.888 109.446 132.136 110.542C132.976 111.304 134.026 111.798 135.152 111.958C136.277 112.119 137.425 111.94 138.446 111.444C139.289 111.125 140.031 110.587 140.592 109.885C141.154 109.183 141.515 108.344 141.638 107.456C141.898 105.844 142.019 104.233 141.274 102.822C140.31 101.026 138.746 99.8089 136.462 100.067ZM137.896 110.026C137.529 110.262 137.116 110.418 136.684 110.485C136.252 110.551 135.811 110.526 135.39 110.411C134.969 110.296 134.576 110.094 134.239 109.818C133.901 109.542 133.627 109.198 133.432 108.809C132.886 107.947 132.596 106.948 132.596 105.929C132.596 104.909 132.886 103.911 133.432 103.048C133.709 102.6 134.094 102.227 134.552 101.963C135.01 101.698 135.526 101.551 136.055 101.535C136.584 101.518 137.109 101.632 137.583 101.867C138.057 102.101 138.465 102.449 138.771 102.879C139.107 103.318 139.351 103.819 139.49 104.353C139.63 104.887 139.66 105.443 139.581 105.989C139.72 106.752 139.635 107.538 139.336 108.255C139.037 108.971 138.537 109.586 137.896 110.026V110.026Z" fill="#054F9E"/>
<path d="M75.5178 104.216C75.5826 102.605 75.3638 101.235 73.6626 100.502C72.091 99.8089 70.4708 100.067 68.8587 100.172C68.3667 100.209 67.8832 100.32 67.4248 100.502C66.72 100.768 66.8335 101.493 66.8902 101.96C66.9469 102.428 67.4653 102.057 67.7489 101.96C68.9294 101.725 70.1366 101.649 71.3376 101.735C71.6497 101.721 71.9613 101.769 72.2541 101.878C72.5468 101.986 72.8146 102.152 73.0414 102.365C73.2683 102.579 73.4495 102.836 73.5743 103.121C73.6991 103.405 73.765 103.712 73.7679 104.023C73.7679 104.523 73.7193 104.829 73.1036 104.829C72.3271 104.799 71.5493 104.834 70.7787 104.934C68 105.336 65.918 106.545 66.5094 109.768C66.5823 110.166 66.7647 110.537 67.0364 110.838C67.3081 111.14 67.6584 111.361 68.0486 111.476C70.0091 112.226 71.8318 111.791 73.6707 110.614C73.6707 112.008 74.6509 111.484 75.2909 111.46C76.101 111.46 75.6393 110.783 75.5988 110.437C75.4057 108.369 75.3786 106.289 75.5178 104.216V104.216ZM72.0991 109.969C71.1669 110.311 70.139 110.288 69.2233 109.905C68.9777 109.822 68.7587 109.675 68.5883 109.48C68.4179 109.286 68.3022 109.05 68.2529 108.796C68.2036 108.543 68.2224 108.281 68.3074 108.037C68.3925 107.793 68.5407 107.576 68.7372 107.407C69.5473 106.513 70.5437 106.456 71.5483 106.239C71.8885 106.158 72.253 106.239 72.5933 106.158C73.5573 105.957 73.8732 106.352 73.7274 107.262C73.7112 107.393 73.7112 107.526 73.7274 107.657C73.776 109.486 73.776 109.486 72.0991 109.969Z" fill="#054F9E"/>
<path d="M166.881 93.661C166.054 93.6595 165.258 93.9724 164.656 94.5356C164.053 95.0989 163.69 95.8698 163.641 96.6906C163.639 97.1116 163.723 97.5285 163.886 97.9169C164.049 98.3053 164.289 98.6574 164.591 98.9524C164.893 99.2474 165.251 99.4795 165.644 99.6348C166.037 99.7902 166.458 99.8659 166.881 99.8573C167.293 99.866 167.702 99.792 168.084 99.6398C168.467 99.4876 168.814 99.2603 169.106 98.9715C169.398 98.6826 169.628 98.3382 169.783 97.9587C169.938 97.5793 170.015 97.1727 170.008 96.7632C169.978 95.9486 169.638 95.1758 169.058 94.6001C168.478 94.0245 167.7 93.689 166.881 93.661ZM166.881 99.398C166.178 99.3309 165.521 99.021 165.023 98.522C164.526 98.0229 164.22 97.3664 164.159 96.6665C164.219 96.0095 164.523 95.3982 165.011 94.9515C165.499 94.5048 166.137 94.2545 166.8 94.2492C167.487 94.2532 168.147 94.514 168.65 94.9796C169.153 95.4453 169.461 96.0819 169.514 96.7632C169.457 97.4405 169.162 98.0762 168.681 98.5582C168.199 99.0403 167.562 99.3377 166.881 99.398Z" fill="#054F9E"/>
<path d="M167.505 96.6423C167.598 96.5044 167.646 96.3411 167.642 96.175C167.646 96.0284 167.61 95.8835 167.537 95.756C167.475 95.6388 167.375 95.5453 167.254 95.4901C167.133 95.4287 167 95.3983 166.865 95.4014H165.974V97.8912H166.371V96.9485H166.743L167.27 97.8912H167.691L167.124 96.9001C167.277 96.8602 167.411 96.7692 167.505 96.6423V96.6423ZM166.8 96.5859H166.371V95.7801H166.808C166.926 95.7727 167.041 95.8102 167.132 95.8849C167.171 95.9258 167.201 95.974 167.22 96.0265C167.239 96.0791 167.248 96.1351 167.245 96.1911C167.25 96.248 167.242 96.3052 167.221 96.3583C167.2 96.4114 167.167 96.459 167.124 96.4973C167.032 96.5677 166.915 96.5996 166.8 96.5859V96.5859Z" fill="#054F9E"/>
<path d="M94.717 58.1272L86.7456 75.1206C89.9338 77.3503 93.6765 78.6664 97.5653 78.9252C101.454 79.1841 105.34 78.3757 108.798 76.5884C112.257 74.8011 115.155 72.1034 117.178 68.7897C119.2 65.476 120.269 61.6734 120.268 57.7968C120.268 57.265 120.268 56.7332 120.203 56.1853C116.736 59.2057 112.377 61.0255 107.781 61.3713C103.186 61.7171 98.6013 60.5703 94.717 58.103V58.1272Z" fill="#DF1F3D"/>
<path d="M63.7632 61.455C58.457 61.471 53.3376 59.5073 49.4163 55.9517C49.3596 56.556 49.3271 57.1764 49.3271 57.7968C49.3258 61.7096 50.4147 65.5461 52.4732 68.8804C54.5316 72.2147 57.4789 74.9163 60.9878 76.6851C64.4967 78.4539 68.4299 79.2208 72.3505 78.9005C76.2712 78.5802 80.0258 77.1854 83.1975 74.8708L75.4205 57.9499C71.963 60.2271 67.91 61.4457 63.7632 61.455Z" fill="#FFE82D"/>
<path d="M77.2837 23.939C77.0694 23.2638 76.9601 22.5601 76.9597 21.8521C76.9597 17.5252 80.5646 14.3102 85.9842 14.3102C87.8684 14.3107 89.7464 14.5243 91.582 14.9468L91.1608 17.9925C89.4518 17.4414 87.6576 17.1985 85.8627 17.2754C82.0552 17.2754 80.6052 19.5396 80.6052 21.4331C80.6052 24.0276 82.2983 25.3088 86.1544 26.7914C87.0724 27.1325 87.9634 27.5419 88.8196 28.0161C90.7725 25.2776 93.3535 23.0415 96.3487 21.4932C99.3438 19.9448 102.667 19.1287 106.042 19.1125L106.196 18.766C105.621 13.6583 103.198 8.93297 99.3776 5.47198C95.5574 2.01098 90.6016 0.0507187 85.435 -0.0430016C80.2685 -0.136722 75.2441 1.6425 71.2996 4.96265C67.355 8.28279 64.7597 12.917 63.998 18.0006L64.4841 19.1286C69.1691 19.2749 73.6721 20.9672 77.2837 23.939V23.939Z" fill="#004C9D"/>
<path d="M84.3477 29.7163C83.3286 29.3638 82.3397 28.93 81.3909 28.419C83.4384 31.4186 84.6719 34.8937 84.9715 38.507C85.19 35.8969 85.8961 33.3501 87.0535 30.9974C86.1946 30.4856 85.2886 30.0566 84.3477 29.7163Z" fill="#004C9D"/>
<path d="M127.47 40.2878C127.474 35.7839 126.036 31.3957 123.363 27.7603C120.689 24.1249 116.921 21.4316 112.604 20.0714L104.503 37.3387C108.77 38.4736 112.576 40.8992 115.396 44.2799C118.216 47.6606 119.91 51.8293 120.243 56.2095C122.521 54.2222 124.344 51.7732 125.59 49.0269C126.836 46.2807 127.477 43.3009 127.47 40.2878V40.2878Z" fill="#4DAF47"/>
<path d="M104.503 37.3387L94.782 58.1272C98.6663 60.5944 103.251 61.7413 107.846 61.3955C112.442 61.0497 116.801 59.2299 120.268 56.2095C119.933 51.8262 118.235 47.6552 115.41 44.2741C112.586 40.893 108.774 38.4693 104.503 37.3387V37.3387Z" fill="#93524A"/>
<path d="M85.644 42.7856C88.3278 45.4319 90.2544 48.7416 91.2257 52.3741L98.233 36.6296C96.412 36.6892 94.6064 36.9844 92.8621 37.5079C91.9547 40.1588 89.573 42.2377 85.644 42.7856Z" fill="#93524A"/>
<path d="M65.8613 37.1695L57.9223 19.9183C54.2715 20.9501 50.9644 22.9339 48.3435 25.6641C45.7225 28.3944 43.8831 31.772 43.0155 35.447C42.148 39.122 42.284 42.9608 43.4094 46.566C44.5347 50.1712 46.6086 53.4116 49.4162 55.9517C49.8094 51.4939 51.6128 47.2748 54.5675 43.9003C57.5221 40.5257 61.476 38.1693 65.8613 37.1695Z" fill="#A4ACB1"/>
<path d="M82.0066 39.893C82.5818 39.9413 83.1651 39.9655 83.7645 39.9655C84.1438 39.9667 84.5227 39.9425 84.8987 39.893C84.8987 39.4256 84.8987 38.9663 84.9716 38.5071C84.6719 34.8937 83.4385 31.4186 81.3909 28.419C79.3171 27.2829 77.8751 25.8325 77.2837 23.939C73.6775 20.9601 69.1773 19.2593 64.4922 19.1045L72.1558 36.6538C75.6596 36.8997 79.0459 38.0132 82.0066 39.893Z" fill="#507A97"/>
<path d="M83.8373 42.9145H83.5214C81.1303 42.9827 78.7476 42.6027 76.4978 41.7945L77.1702 38.6763C78.6931 39.4047 80.344 39.8316 82.0308 39.9332C79.0685 38.0591 75.6823 36.9512 72.1799 36.7102L78.6608 51.5764C79.661 48.3171 81.4367 45.3458 83.8373 42.9145V42.9145Z" fill="#D8C82A"/>
<path d="M75.4449 58.0144L65.8613 37.1695C61.4761 38.1693 57.5222 40.5257 54.5675 43.9003C51.6129 47.2748 49.8095 51.4939 49.4163 55.9517C52.9093 59.12 57.363 61.0423 62.0755 61.4158C66.788 61.7893 71.4914 60.5926 75.4449 58.0144V58.0144Z" fill="#D8C82A"/>
<path d="M85.6438 42.7856C85.0446 42.8629 84.4414 42.906 83.8373 42.9145C81.4319 45.3418 79.6506 48.3104 78.6445 51.5684L85.0605 66.2331L91.2254 52.3741C90.2542 48.7416 88.3276 45.4319 85.6438 42.7856V42.7856Z" fill="#EB9103"/>
<path d="M93.2913 34.9456C93.2893 35.8199 93.1443 36.688 92.8619 37.516C94.6063 36.9925 96.4118 36.6973 98.2329 36.6377L106.042 19.1125C102.669 19.1312 99.3497 19.9485 96.3576 21.4968C93.3655 23.0451 90.787 25.2799 88.8357 28.0161C91.7845 29.6437 93.2913 31.7226 93.2913 34.9456Z" fill="#008292"/>
<path d="M89.6054 35.2276C89.6054 33.3824 88.8439 32.1013 87.0535 30.9974C85.8961 33.3501 85.1901 35.8969 84.9716 38.507C84.9716 38.9663 84.9149 39.4256 84.8987 39.8929C87.888 39.5304 89.6054 37.7255 89.6054 35.2276Z" fill="#008292"/>
</g>
<defs>
<clipPath id="clip0">
<rect width="170" height="112" fill="white"/>
</clipPath>
</defs>
</svg>
