<svg width="11" height="13" viewBox="0 0 11 13" fill="none" xmlns="http://www.w3.org/2000/svg">
<path d="M5.49446 0C2.78659 0 0.596069 2.19052 0.596069 4.89839C0.596069 6.30737 1.30056 7.58425 1.99404 8.76207C2.84162 10.2262 3.85433 11.591 5.03214 12.8019C5.28532 13.0659 5.70372 13.0659 5.96779 12.8019C7.00251 11.7782 7.91614 10.6224 8.68667 9.3895C9.51224 8.05747 10.4039 6.5164 10.4039 4.89839C10.3929 2.20152 8.20234 0 5.49446 0ZM5.49446 7.73836C3.85433 7.73836 2.5224 6.40644 2.5224 4.7663C2.5224 3.12616 3.85433 1.79424 5.49446 1.79424C7.1346 1.79424 8.46652 3.11516 8.46652 4.7663C8.46652 6.41744 7.1346 7.73836 5.49446 7.73836Z" fill="#B2AFAA"/>
</svg>
