<svg width="33" height="33" viewBox="0 0 33 33" fill="none" xmlns="http://www.w3.org/2000/svg">
<path d="M32.9244 14.9806C32.5463 10.8762 30.6625 7.08125 27.61 4.30375C24.5712 1.53313 20.625 0 16.5 0C12.0931 0 7.9475 1.71875 4.83312 4.83313C1.71187 7.9475 0 12.0931 0 16.5C0 20.9069 1.71875 25.0525 4.83312 28.1669C7.9475 31.2813 12.0931 33 16.5 33C16.995 33 17.4969 32.9794 17.985 32.9313C18.425 32.89 18.8719 32.835 19.3462 32.7456L19.5181 32.7181C23.5675 31.9619 27.17 29.7344 29.6588 26.4481C32.1475 23.1619 33.3094 19.085 32.9244 14.9806ZM27.5894 26.4069V23.5331C27.5894 19.5112 24.31 16.2319 20.2881 16.2319H12.7119C8.69 16.2388 5.41063 19.5112 5.41063 23.5331V26.4069C0.178751 20.5631 0.39875 11.5156 6.01563 5.93313C8.91 3.05938 12.705 1.62937 16.5 1.62937C20.295 1.62937 24.0969 3.06625 26.9844 5.93313C32.6013 11.5156 32.8212 20.5631 27.5894 26.4069Z" fill="#B2AFAA"/>
<path d="M16.5 4.05624C13.365 4.05624 10.8213 6.60687 10.8213 9.73499C10.8213 12.8631 13.3719 15.4137 16.5 15.4137C19.635 15.4137 22.1788 12.8631 22.1788 9.73499C22.1788 6.60687 19.6282 4.05624 16.5 4.05624Z" fill="#B2AFAA"/>
</svg>
